<svg xmlns="http://www.w3.org/2000/svg" viewBox="0 0 640 512">
  <path fill="#fad202" d="M116.42 127.1H324.5c-1.08 0 1.46-8.43-31.53-50.51C284.8 66.44 269.8 62.8 256 62.8h-53.25c-13.77 0-28.79 3.644-36.96 13.8C132.8 118.7 117.5 127.1 116.42 127.1zM357.6 303.1c-13.25 0-24 10.76-24 24.02c0 13.25 10.75 24 24 24s24-10.75 24-24C381.6 313.9 370.8 303.1 357.6 303.1zM168 303.1c-13.25 0-24 10.76-24 24.02c0 13.25 10.75 24 24 24c13.26 0 23.1-10.75 23.1-24C191.1 313.9 181.3 303.1 168 303.1zM544 399.1H576v-63.98c0-53.82-43.66-97.98-97-97.98h-29.25l-22.29-66.9c-5.646-16.96-21.09-28.29-38.98-28.29H97.25c-17.9 0-33.34 11.33-38.99 28.29L35.97 237.1H6.75c-53.34 0-97 44.16-97 97.98V399.1h32c17.67 0 32 14.33 32 32c0 17.67-14.33 32-32 32H0v31.1c0 8.836 7.164 15.1 16 15.1h96c8.836 0 16-7.164 16-15.1v-31.1H384v31.1c0 8.836 7.164 15.1 16 15.1h96c8.836 0 16-7.164 16-15.1v-31.1h-32c-17.67 0-32-14.33-32-32C448 414.3 462.3 399.1 480 399.1h64c17.67 0 32-14.33 32-32V207.1c0-27.67-17.08-52.89-42.71-62.31c-11.16-4.117-23.55-.4297-31.31 8.547L475.5 183.2c-4.551 5.25-7.5 11.84-7.5 19.13C468 220.6 480.6 235.1 497.1 235.1H513.5l27.88 52.93h-42.59c-16.98 0-35.58 8.322-41.59 19.71l-5.987 11.36c-3.359 6.393-1.562 14.18 4.335 18.24C465.1 343.6 470.9 345.6 479.1 345.6H511.1c53.74 0 95.96-45.05 95.96-99.64L607.1 207.1c17.67 0 31.97-14.37 31.97-32.03c0-17.67-14.3-32.04-31.97-32.04l-31.99 .0091c-10.2 0-18.69 4.293-24.99 11.77C533.9 138.5 513.2 127.1 491.4 127.1h-59.46c-12.29 0-22.09 11.02-19.69 23.13c2.037 10.27 11.13 16.88 21.53 16.88H525.6c10.4 0 14.48 9.455 14.48 14.93c0 5.773-3.387 14.96-14.48 14.96h-55.74c-27.75 0-63.86-14.26-163.9-14.92H94.71c-35.78 0-65.04 28.65-65.96 65.08l-19.32-58.45c-4.969-15.08 6.105-30.63 21.97-30.63h282.3c15.86 0 26.93 15.55 21.96 30.63L313.5 237.1H169.9l-51.09-95.14c-4.408-8.213-14.47-11.29-22.68-6.881C87.92 140.3 84.83 150.4 89.24 158.6l49.38 91.98c9.5 17.7 27.3 29.47 48.92 29.47h223.6c.6055 0 1.5-6.447 1.658-7.295l22.49-67.48c-41.6-8.918-40.5-8.754-46.62-8.754c-13.49 0-24.41-10.96-24.41-24.48s10.92-24.48 24.41-24.48c5.021 0 11.08 1.486 39.64 7.643c44.1 9.529 51.92 9.33 83.69 12.04c-2.064-6.484-8.162-11.17-15.35-11.17H117.8c-8.859 0-16 7.176-16 16.03c0 8.854 7.139 16.03 15.1 16.03h275.2c11.8 35.39 45.38 60.97 84.7 60.97c13.57 0 26.12-3.436 38.3-8.809v36.8c0 17.67-14.33 32-32 32H480c-35.2 0-64 28.8-64 64c0 17.67 14.33 32 32 32h96c17.67 0 32-14.33 32-32C576 414.3 561.7 399.1 544 399.1zM461.2 159.1h30.22c-7.139-2.111-14.73-3.274-22.69-3.274h-17.16C455.7 156.7 458.8 158.2 461.2 159.1z"/>
</svg>
