<svg xmlns="http://www.w3.org/2000/svg" viewBox="0 0 640 512">
  <path fill="#fad202" d="M165.82 463.27A192.004 192.004 0 0 0 320 512c105.87 0 192-86.13 192-192 0-1.37-.11-2.72-.14-4.08 36.16-19.61 64.03-54.32 70.92-97.71l10.52-66.52c3.45-21.84-13.27-41.7-35.38-41.7h-30.27c-2.1-11.77-12.12-32-25.03-32H249.18c-11.24 0-20.9 10.87-25.41 20.31-42.93-4.9-69.3 11.54-110.42 14.31-6.81.46-12.81 4.4-15.86 10.39l-97.88 192a31.995 31.995 0 0 0 28.38 46.7h97.59c30.23 0 53.42-26.26 48.94-55.83l-8.7-55.62 108.32-14.89zm-34.53-278.82c37.92-2.53 59.16-16.56 100.38-15.92-3.8 12.62-6.04 29.21-6.04 47.28v112.99l-93.73 12.85 8.83 56.44c1.5 9.9-6.28 18.7-16.26 18.7H26.88L121.7 184.45zm380.54-13.7c6.74 0 12.69 5.8 11.67 12.46l-10.52 66.52c-8.25 52.27-46.4 95.14-94.52 108.6C439 315.93 464 269.5 464 216c0-26.32-6.27-51.25-17.27-73.3 9.87 5.93 20.08 10.54 29.07 16.31 6.94 4.45 16.02 2.65 20.35-4.17a15.986 15.986 0 0 0-4.17-22.22c-13.08-8.4-27.56-14.27-40.59-22.17-12.4-7.53-26.65-14.17-38.4-19.92 8.37-3.95 38-9.05 59.18-8.8 2.29.03 39.73.15 39.73.15zM224 265.67V168c0-34.83 28.93-64 64-64h64c35.07 0 64 29.17 64 64v112.28c-9.63 3.29-19.76 5.72-30.48 6.92 0-.08.01-.15.01-.23l-.47-150.97h-93.4l-2.39 164.73c-21.91-3.5-42.44-10.93-60.3-21.87-5.39-3.3-10.7-6.78-15.94-10.4l10.97-1.79zM320 480c-86.57 0-160.28-60.35-179.14-141.15a177.33 177.33 0 0 0 31.83 12.71c10.42 3.02 21.27 5.03 32.48 6.25l2.66 122.18H352V359.12c10.97-1.14 21.19-3.93 30.29-8.06 10.83-4.85 21.53-10.96 31.83-16.01C393.45 405.62 361.97 480 320 480z"/>
</svg>
